<svg width="19" height="16" viewBox="0 0 19 16" fill="none" xmlns="http://www.w3.org/2000/svg">
<path opacity="0.25" d="M18.2857 13.7143C18.2857 14.975 17.2607 16 16 16H2.28571C1.025 16 0 14.975 0 13.7143V2.28571C0 1.025 1.025 0 2.28571 0H6.85714C7.575 0 8.25357 0.339286 8.68571 0.914286L9.37143 1.82857C9.58571 2.11786 9.925 2.28571 10.2857 2.28571H16C17.2607 2.28571 18.2857 3.31071 18.2857 4.57143V13.7143ZM8.28571 12.2857C8.28571 12.7607 8.66786 13.1429 9.14286 13.1429C9.61786 13.1429 10 12.7607 10 12.2857V10H12.2857C12.7607 10 13.1429 9.61786 13.1429 9.14286C13.1429 8.66786 12.7607 8.28571 12.2857 8.28571H10V6C10 5.525 9.61786 5.14286 9.14286 5.14286C8.66786 5.14286 8.28571 5.525 8.28571 6V8.28571H6C5.525 8.28571 5.14286 8.66786 5.14286 9.14286C5.14286 9.61786 5.525 10 6 10H8.28571V12.2857Z" fill="#08233B"/>
</svg>
