<svg width="147" height="55" viewBox="0 0 147 55" fill="none" xmlns="http://www.w3.org/2000/svg">
<path fill-rule="evenodd" clip-rule="evenodd" d="M18.06 49.4663H4.87C2.18 49.4663 0 47.2863 0 44.5963C0 43.8763 0.16 43.1863 0.44 42.5763L7.26 30.7563C7.26 30.9563 7.26 31.1663 7.26 31.3663C7.26 33.8263 7.69 36.1763 8.48 38.3663L4.88 44.6063H12.08C12.46 45.0563 12.86 45.4963 13.28 45.9163C14.69 47.3263 16.3 48.5263 18.06 49.4863V49.4663Z" fill="#E52329"/>
<path fill-rule="evenodd" clip-rule="evenodd" d="M17.01 13.8564L23.6 2.43638C24.95 0.106376 27.93 -0.693623 30.26 0.656377C30.89 1.01638 31.4 1.49638 31.79 2.04638L38.61 13.8564C36.45 12.5164 34.02 11.5664 31.42 11.1064L27.82 4.86638L24.22 11.0964C21.61 11.5564 19.17 12.5064 17 13.8464L17.01 13.8564Z" fill="#F9AE00"/>
<path fill-rule="evenodd" clip-rule="evenodd" d="M48.3701 30.7463L54.9701 42.1763C56.3201 44.5063 55.5201 47.4863 53.1901 48.8363C52.5601 49.1964 51.8901 49.4063 51.2201 49.4663H37.5801C39.3501 48.5163 40.9601 47.3063 42.3601 45.8963C42.7701 45.4863 43.1701 45.0563 43.5401 44.6063H50.7501L47.1501 38.3763C47.9501 36.1863 48.3801 33.8163 48.3801 31.3563C48.3801 31.1563 48.3801 30.9463 48.3801 30.7463H48.3701Z" fill="#20AC2E"/>
<path fill-rule="evenodd" clip-rule="evenodd" d="M27.8209 24.1663C30.9409 24.1663 33.5909 26.1463 34.5909 28.9263H43.4909C44.8309 28.9263 45.9309 30.0163 45.9309 31.3663C45.9309 41.3663 37.8209 49.4763 27.8209 49.4763C19.9909 49.4763 13.3309 44.5064 10.8009 37.5564C10.6909 37.2564 10.7309 36.9463 10.9209 36.6763C11.1109 36.4163 11.3809 36.2663 11.7109 36.2663H14.5909C15.1609 36.2663 15.6409 36.5763 15.8909 37.0863C16.5409 38.4464 17.4209 39.6763 18.4709 40.7263C20.3209 42.5763 22.7109 43.8763 25.3909 44.3763V38.1363C23.3809 37.4163 21.7809 35.8164 21.0609 33.8064H12.1509C10.8109 33.8064 9.71094 32.7163 9.71094 31.3663C9.71094 21.3663 17.8209 13.2563 27.8209 13.2563C35.6509 13.2563 42.3209 18.2263 44.8409 25.1763C44.9509 25.4763 44.9109 25.7864 44.7209 26.0564C44.5309 26.3164 44.2609 26.4663 43.9309 26.4663H41.0509C40.4809 26.4663 40.0009 26.1563 39.7509 25.6463C39.1009 24.2863 38.2209 23.0563 37.1709 22.0063C34.7809 19.6163 31.4709 18.1263 27.8109 18.1263C24.1509 18.1263 20.8509 19.6063 18.4509 22.0063C16.6009 23.8563 15.3009 26.2463 14.8009 28.9263H21.0409C22.0409 26.1563 24.6909 24.1663 27.8109 24.1663H27.8209ZM27.8209 28.9263C29.1709 28.9263 30.2609 30.0163 30.2609 31.3663C30.2609 32.7163 29.1709 33.8064 27.8209 33.8064C26.4709 33.8064 25.3809 32.7163 25.3809 31.3663C25.3809 30.0163 26.4709 28.9263 27.8209 28.9263ZM30.2609 44.3663C32.9409 43.8663 35.3309 42.5663 37.1809 40.7163C39.0309 38.8663 40.3309 36.4763 40.8309 33.7963H34.5909C33.8709 35.8063 32.2709 37.4063 30.2609 38.1263V44.3663Z" fill="#08233B"/>
<path d="M33.1798 51.2163C33.9398 51.0163 34.7198 51.4663 34.9198 52.2263C35.1198 52.9863 34.6698 53.7663 33.9098 53.9663C32.9398 54.2263 31.9398 54.4263 30.8898 54.5663C29.8598 54.7063 28.8298 54.7763 27.8098 54.7763C26.7898 54.7763 25.7598 54.7063 24.7298 54.5663C23.6898 54.4263 22.6798 54.2263 21.7098 53.9663C20.9498 53.7663 20.4998 52.9863 20.6998 52.2263C20.8998 51.4663 21.6798 51.0163 22.4398 51.2163C23.3198 51.4563 24.1998 51.6363 25.0898 51.7463C25.9498 51.8563 26.8598 51.9163 27.7998 51.9163C28.7398 51.9163 29.6498 51.8563 30.5098 51.7463C31.3998 51.6263 32.2798 51.4463 33.1598 51.2163H33.1798Z" fill="#08233B"/>
<path d="M42.3399 16.7863C41.7799 16.2363 41.7799 15.3363 42.3399 14.7863C42.8899 14.2263 43.7899 14.2263 44.3399 14.7863C45.0599 15.5063 45.7399 16.2763 46.3799 17.1063C46.9899 17.8963 47.5599 18.7563 48.0899 19.6763C48.6099 20.5863 49.0699 21.5163 49.4599 22.4463C49.8599 23.4063 50.1899 24.3863 50.4499 25.3663C50.6499 26.1263 50.1999 26.8963 49.4399 27.0963C48.6799 27.2963 47.9099 26.8463 47.7099 26.0863C47.4799 25.2163 47.1899 24.3663 46.8399 23.5263C46.4999 22.6963 46.0999 21.8763 45.6399 21.0863C45.1899 20.3063 44.6799 19.5463 44.1299 18.8263C43.5699 18.1063 42.9799 17.4263 42.3499 16.7963L42.3399 16.7863Z" fill="#08233B"/>
<path d="M7.93918 26.0663C7.73918 26.8263 6.95918 27.2763 6.20918 27.0763C5.45918 26.8763 4.99917 26.0963 5.19917 25.3463C5.45917 24.3663 5.78918 23.3963 6.18918 22.4263C6.57918 21.4863 7.02918 20.5663 7.55918 19.6563C8.08917 18.7363 8.65918 17.8763 9.26918 17.0863C9.89918 16.2663 10.5792 15.4863 11.3092 14.7663C11.8692 14.2163 12.7592 14.2163 13.3092 14.7663C13.8592 15.3263 13.8592 16.2163 13.3092 16.7663C12.6792 17.3963 12.0892 18.0663 11.5292 18.7963C10.9692 19.5163 10.4692 20.2763 10.0192 21.0563C9.55918 21.8463 9.15917 22.6663 8.81917 23.4963C8.46917 24.3363 8.18917 25.1863 7.94917 26.0563L7.93918 26.0663Z" fill="#08233B"/>
<path d="M71.0703 39.2464C71.9403 39.3064 73.1103 39.0764 73.1103 38.0064C73.1103 35.7464 66.4403 37.2064 66.4403 32.6564C66.4403 29.0064 69.9503 28.0964 72.9503 28.3664C73.4203 28.4064 73.8803 28.4964 74.3403 28.6164C74.8003 28.7464 75.1903 28.9264 75.5203 29.1764C75.8503 29.4264 76.0103 29.7464 76.0103 30.1564C76.0103 30.8764 75.5403 31.8864 74.7103 31.8864C74.3103 31.8864 73.9703 31.6564 73.6303 31.4864C72.6003 30.9864 69.7303 30.7064 69.7303 32.3464C69.7303 34.7964 76.4003 32.9264 76.4003 37.7064C76.4003 40.8364 74.0703 42.1964 71.1403 42.1964C69.6303 42.1964 67.4703 41.7164 66.4703 40.4864C66.2003 40.1564 66.0703 39.8164 66.0703 39.4664C66.0703 39.2864 66.1103 39.0864 66.1903 38.8864C66.2703 38.6864 66.3703 38.4964 66.5003 38.3164C66.6303 38.1364 66.7803 37.9964 66.9503 37.8764C67.1303 37.7564 67.3103 37.6964 67.5103 37.6964C67.7603 37.6964 68.0003 37.7764 68.2103 37.9364C69.1703 38.6464 69.9903 39.1764 71.0803 39.2564L71.0703 39.2464ZM140.76 39.2464C141.63 39.3064 142.8 39.0764 142.8 38.0064C142.8 35.7464 136.13 37.2064 136.13 32.6564C136.13 29.0064 139.64 28.0964 142.64 28.3664C143.11 28.4064 143.57 28.4964 144.03 28.6164C144.49 28.7464 144.88 28.9264 145.21 29.1764C145.54 29.4264 145.7 29.7464 145.7 30.1564C145.7 30.8764 145.23 31.8864 144.4 31.8864C144 31.8864 143.66 31.6564 143.32 31.4864C142.29 30.9864 139.42 30.7064 139.42 32.3464C139.42 34.7964 146.09 32.9264 146.09 37.7064C146.09 40.8364 143.76 42.1964 140.83 42.1964C139.32 42.1964 137.16 41.7164 136.16 40.4864C135.89 40.1564 135.76 39.8164 135.76 39.4664C135.76 39.2864 135.8 39.0864 135.88 38.8864C135.96 38.6864 136.06 38.4964 136.19 38.3164C136.32 38.1364 136.47 37.9964 136.64 37.8764C136.82 37.7564 137 37.6964 137.2 37.6964C137.45 37.6964 137.69 37.7764 137.9 37.9364C138.86 38.6464 139.68 39.1764 140.77 39.2564L140.76 39.2464ZM84.6803 33.1764C84.6803 33.0364 84.6703 32.8564 84.6403 32.6464C84.6103 32.4364 84.5403 32.2264 84.4103 32.0264C84.2803 31.8264 84.1003 31.6464 83.8503 31.4964C83.6003 31.3464 83.2603 31.2764 82.8103 31.2764C82.2103 31.2764 81.7403 31.4464 81.4103 31.7964C81.0803 32.1364 80.9203 32.6664 80.9203 33.3864V37.1364C80.9203 37.8564 81.0803 38.3864 81.4103 38.7264C81.7403 39.0664 82.2103 39.2464 82.8303 39.2464C83.2503 39.2464 83.5803 39.1764 83.8203 39.0364C84.0603 38.8964 84.2403 38.7164 84.3703 38.5064C84.5003 38.2964 84.5803 38.0664 84.6103 37.8264C84.6503 37.5764 84.6703 37.3564 84.6803 37.1464C84.7103 36.7564 84.8803 36.4864 85.2003 36.3564C85.5203 36.2264 85.8803 36.1564 86.3003 36.1564C86.8803 36.1564 87.3003 36.2564 87.5603 36.4664C87.8303 36.6664 87.9603 37.0864 87.9603 37.7164C87.9603 38.4164 87.8303 39.0464 87.5603 39.5864C87.2903 40.1364 86.9203 40.5964 86.4403 40.9664C85.9603 41.3364 85.4103 41.6264 84.7703 41.8164C84.1303 42.0164 83.4303 42.1064 82.6803 42.1064C81.9903 42.1064 81.3403 42.0164 80.7303 41.8464C80.1203 41.6664 79.5803 41.3864 79.1203 40.9864C78.6603 40.5864 78.2903 40.0764 78.0303 39.4464C77.7603 38.8264 77.6303 38.0564 77.6303 37.1464V33.3964C77.6303 32.4964 77.7603 31.7364 78.0303 31.1064C78.3003 30.4764 78.6603 29.9564 79.1203 29.5564C79.5803 29.1564 80.1203 28.8664 80.7303 28.6964C81.3403 28.5164 81.9903 28.4364 82.6803 28.4364C83.4403 28.4364 84.1403 28.5264 84.7703 28.7064C85.4103 28.8864 85.9703 29.1564 86.4403 29.5164C86.9203 29.8764 87.2903 30.3164 87.5603 30.8364C87.8303 31.3564 87.9603 31.9564 87.9603 32.6264C87.9603 33.2564 87.8303 33.6764 87.5603 33.8764C87.2903 34.0764 86.8803 34.1764 86.3203 34.1764C85.8703 34.1764 85.4903 34.1064 85.1803 33.9664C84.8703 33.8264 84.7003 33.5664 84.6703 33.1864L84.6803 33.1764ZM96.8903 36.1764H92.7003V40.9664C92.7003 41.3064 92.5303 41.5564 92.1803 41.7264C91.8403 41.8964 91.4603 41.9764 91.0503 41.9764C90.6403 41.9764 90.2703 41.8964 89.9203 41.7264C89.5803 41.5564 89.4003 41.7664 89.4003 41.4364V29.4064C89.4003 29.0564 89.5703 28.8064 89.9203 28.6464C90.2603 28.4964 90.6403 28.4164 91.0503 28.4164C91.4603 28.4164 91.8303 28.4964 92.1803 28.6464C92.5203 28.7964 92.7003 29.0564 92.7003 29.4064V33.6464H96.8903V29.4064C96.8903 29.0564 97.0603 28.8064 97.4103 28.6464C97.7503 28.4964 98.1303 28.4164 98.5403 28.4164C98.9503 28.4164 99.3203 28.4964 99.6703 28.6464C100.01 28.7964 100.19 29.0564 100.19 29.4064V40.9664C100.19 41.3064 100.02 41.5564 99.6703 41.7264C99.3303 41.8964 98.9503 41.9764 98.5403 41.9764C98.1303 41.9764 97.7603 41.8964 97.4103 41.7264C97.0703 41.5564 96.8903 41.3064 96.8903 40.9664V36.1764ZM107.22 42.1064C106.49 42.1064 105.81 42.0164 105.19 41.8464C104.57 41.6664 104.02 41.3864 103.56 40.9864C103.1 40.5864 102.73 40.0764 102.47 39.4464C102.2 38.8264 102.07 38.0564 102.07 37.1464V33.3964C102.07 32.4964 102.2 31.7364 102.47 31.1064C102.74 30.4764 103.1 29.9564 103.56 29.5564C104.02 29.1564 104.57 28.8664 105.19 28.6964C105.81 28.5164 106.49 28.4364 107.22 28.4364C107.95 28.4364 108.63 28.5264 109.26 28.6964C109.89 28.8764 110.44 29.1564 110.9 29.5564C111.36 29.9564 111.73 30.4764 111.99 31.1064C112.25 31.7364 112.39 32.5064 112.39 33.3964V37.1464C112.39 38.0564 112.26 38.8264 111.99 39.4464C111.72 40.0664 111.36 40.5864 110.9 40.9864C110.44 41.3864 109.89 41.6764 109.26 41.8464C108.63 42.0264 107.95 42.1064 107.22 42.1064ZM109.11 33.3864C109.11 32.6564 108.94 32.1264 108.6 31.7864C108.26 31.4464 107.8 31.2764 107.21 31.2764C106.62 31.2764 106.16 31.4464 105.83 31.7864C105.5 32.1264 105.34 32.6564 105.34 33.3864V37.1364C105.34 37.8664 105.51 38.3964 105.83 38.7364C106.16 39.0764 106.62 39.2464 107.21 39.2464C107.8 39.2464 108.26 39.0764 108.6 38.7364C108.94 38.3964 109.11 37.8664 109.11 37.1364V33.3864ZM119.27 42.1064C118.54 42.1064 117.86 42.0164 117.24 41.8464C116.62 41.6664 116.07 41.3864 115.61 40.9864C115.15 40.5864 114.78 40.0764 114.52 39.4464C114.25 38.8264 114.12 38.0564 114.12 37.1464V33.3964C114.12 32.4964 114.25 31.7364 114.52 31.1064C114.79 30.4764 115.15 29.9564 115.61 29.5564C116.07 29.1564 116.62 28.8664 117.24 28.6964C117.86 28.5164 118.54 28.4364 119.27 28.4364C120 28.4364 120.68 28.5264 121.31 28.6964C121.94 28.8764 122.49 29.1564 122.95 29.5564C123.41 29.9564 123.78 30.4764 124.04 31.1064C124.31 31.7364 124.44 32.5064 124.44 33.3964V37.1464C124.44 38.0564 124.31 38.8264 124.04 39.4464C123.77 40.0664 123.41 40.5864 122.95 40.9864C122.49 41.3864 121.94 41.6764 121.31 41.8464C120.68 42.0264 120 42.1064 119.27 42.1064ZM121.16 33.3864C121.16 32.6564 120.99 32.1264 120.65 31.7864C120.31 31.4464 119.85 31.2764 119.26 31.2764C118.67 31.2764 118.21 31.4464 117.88 31.7864C117.55 32.1264 117.39 32.6564 117.39 33.3864V37.1364C117.39 37.8664 117.55 38.3964 117.88 38.7364C118.21 39.0764 118.67 39.2464 119.26 39.2464C119.85 39.2464 120.31 39.0764 120.65 38.7364C120.99 38.3964 121.16 37.8664 121.16 37.1364V33.3864ZM127.77 41.9764C127.41 41.9764 127.08 41.8964 126.78 41.7264C126.49 41.5564 126.34 41.3064 126.34 40.9664V29.4064C126.34 29.0564 126.51 28.8064 126.86 28.6464C127.2 28.4964 127.58 28.4164 127.99 28.4164C128.4 28.4164 128.77 28.4964 129.12 28.6464C129.46 28.7964 129.64 29.0564 129.64 29.4064V39.1164H134.44C134.76 39.1164 135 39.2664 135.16 39.5564C135.31 39.8464 135.39 40.1764 135.39 40.5464C135.39 40.9164 135.31 41.2364 135.16 41.5364C135.01 41.8264 134.77 41.9764 134.44 41.9764H127.79H127.77Z" fill="#08233B"/>
<path d="M65.5699 10.8363C66.2999 10.8363 66.9799 10.9263 67.6099 11.0963C68.2399 11.2763 68.7899 11.5563 69.2499 11.9563C69.7099 12.3563 70.0799 12.8763 70.3399 13.5063C70.6099 14.1363 70.7399 14.9063 70.7399 15.7963V19.4263C70.7399 20.3363 70.6099 21.1063 70.3399 21.7263C70.0699 22.3463 69.7099 22.8663 69.2499 23.2663C68.7899 23.6663 68.2399 23.9563 67.6099 24.1263C66.9799 24.3063 66.2999 24.3863 65.5699 24.3863H61.8499C61.4199 24.3863 61.0699 24.2863 60.8099 24.0963C60.5499 23.8963 60.4199 23.6663 60.4199 23.4063V11.8263C60.4199 11.5563 60.5499 11.3263 60.8099 11.1363C61.0699 10.9363 61.4199 10.8463 61.8499 10.8463H65.5699V10.8363ZM63.6999 13.6963V21.5363H65.5699C66.1599 21.5363 66.6199 21.3663 66.9599 21.0163C67.2999 20.6763 67.4699 20.1463 67.4699 19.4263V15.7963C67.4699 15.0763 67.2999 14.5463 66.9599 14.2063C66.6199 13.8663 66.1599 13.6863 65.5699 13.6863H63.6999V13.6963ZM73.4599 11.8263C73.4599 11.5563 73.5499 11.3263 73.7299 11.1363C73.9099 10.9363 74.1599 10.8463 74.4699 10.8463H78.8299C79.5499 10.8463 80.2199 10.9163 80.8499 11.0663C81.4799 11.2163 82.0299 11.4663 82.4999 11.8163C82.9699 12.1663 83.3399 12.6263 83.5999 13.2063C84.2299 14.5663 84.1299 16.4763 83.2699 17.7163C82.7899 18.4063 82.1799 18.8963 81.4499 19.1763L84.0199 22.4463C84.0999 22.5463 84.1299 22.6863 84.1299 22.8263C84.1299 23.0363 84.0699 23.2463 83.9399 23.4463C83.8099 23.6463 83.6499 23.8363 83.4599 23.9963C83.2599 24.1563 83.0399 24.2863 82.7999 24.3863C82.5499 24.4863 82.3099 24.5363 82.0699 24.5363C81.8599 24.5363 81.6599 24.4863 81.4699 24.3963C81.2799 24.3063 81.1599 24.1263 81.0199 23.9263L78.1399 19.7063H76.7499V23.3963C76.7499 23.7363 76.5799 23.9863 76.2299 24.1563C75.8899 24.3263 75.5099 24.4063 75.0999 24.4063C74.6899 24.4063 74.3199 24.3263 73.9699 24.1563C73.6299 23.9863 73.4499 23.7363 73.4499 23.3963V11.8363L73.4599 11.8263ZM76.7399 13.6963V17.1663H78.8199C79.4099 17.1663 79.8699 17.0263 80.2099 16.7463C80.8999 16.1763 80.8999 14.6963 80.2099 14.1163C79.8699 13.8363 79.4099 13.6963 78.8199 13.6963H76.7399ZM86.3799 11.8263C86.3799 11.4763 86.5499 11.2263 86.8999 11.0663C87.2399 10.9163 87.6199 10.8363 88.0299 10.8363C88.4399 10.8363 88.8099 10.9163 89.1599 11.0663C89.4999 11.2163 89.6799 11.4763 89.6799 11.8263V23.3863C89.6799 23.7263 89.5099 23.9763 89.1599 24.1463C88.8199 24.3163 88.4399 24.3963 88.0299 24.3963C87.6199 24.3963 87.2499 24.3163 86.8999 24.1463C86.5599 23.9763 86.3799 23.7263 86.3799 23.3863V11.8263ZM91.5599 12.4163C91.5199 12.3063 91.5199 12.2263 91.5199 12.1863C91.5199 11.9863 91.5899 11.8063 91.7199 11.6463C91.8499 11.4863 92.0299 11.3463 92.2399 11.2263C92.4499 11.1063 92.6799 11.0163 92.9199 10.9463C93.1699 10.8763 93.3999 10.8363 93.6199 10.8363C93.8899 10.8363 94.1099 10.8863 94.2999 10.9763C94.4899 11.0663 94.6199 11.2263 94.6899 11.4463L97.6399 20.4163L100.56 11.4463C100.63 11.2263 100.76 11.0663 100.95 10.9763C101.14 10.8863 101.37 10.8363 101.63 10.8363C101.85 10.8363 102.09 10.8763 102.33 10.9463C102.58 11.0163 102.8 11.1163 103.01 11.2263C103.22 11.3463 103.39 11.4863 103.53 11.6463C103.66 11.8063 103.73 11.9863 103.73 12.1863C103.73 12.2263 103.73 12.3063 103.69 12.4163L99.7799 23.4263C99.6499 23.7863 99.3999 24.0663 98.9899 24.2463C98.5799 24.4263 98.1199 24.5163 97.6299 24.5163C97.1399 24.5163 96.6899 24.4263 96.2699 24.2463C95.8599 24.0663 95.6099 23.7863 95.4799 23.4263L91.5399 12.4163H91.5599ZM108.88 16.3463H112.04C112.36 16.3463 112.61 16.4763 112.78 16.7363C112.95 16.9963 113.03 17.2963 113.03 17.6263C113.03 17.9063 112.95 18.1863 112.8 18.4563C112.65 18.7263 112.39 18.8663 112.04 18.8663H108.88V21.5363H114.52C114.84 21.5363 115.09 21.6763 115.26 21.9663C115.43 22.2563 115.51 22.5963 115.51 22.9863C115.51 23.3263 115.43 23.6463 115.28 23.9463C115.13 24.2463 114.87 24.3963 114.52 24.3963H107.03C106.67 24.3963 106.34 24.3163 106.04 24.1463C105.75 23.9763 105.6 23.7263 105.6 23.3863V11.8463C105.6 11.5063 105.75 11.2563 106.04 11.0863C106.33 10.9163 106.66 10.8363 107.03 10.8363H114.52C114.87 10.8363 115.12 10.9863 115.28 11.2863C115.43 11.5863 115.51 11.9063 115.51 12.2463C115.51 12.6363 115.43 12.9763 115.26 13.2663C115.09 13.5563 114.85 13.6963 114.52 13.6963H108.88V16.3363V16.3463Z" fill="#08233B"/>
</svg>
